<?xml version="1.0" encoding="iso-8859-1"?>
<!-- Generator: Adobe Illustrator 19.1.0, SVG Export Plug-In . SVG Version: 6.00 Build 0)  -->
<svg version="1.1" id="Capa_1" xmlns="http://www.w3.org/2000/svg" xmlns:xlink="http://www.w3.org/1999/xlink" x="0px" y="0px"
	 viewBox="0 0 146.336 146.336" style="enable-background:new 0 0 146.336 146.336;" xml:space="preserve">
<g>
	<path d="M55.855,101.129c0.284,0,0.574-0.035,0.863-0.11l77.022-20c1.311-0.34,2.297-1.421,2.518-2.757l6.974-42.345
		c0.165-1.009-0.127-2.039-0.799-2.809c-0.674-0.769-1.657-1.252-2.675-1.17l-98.523,2.661c-1.891,0.051-3.381,1.628-3.327,3.517
		c0.053,1.891,1.654,3.438,3.518,3.327l94.375-2.544l-5.937,36.053l-71.672,18.61l-21.757-72.74
		c-0.389-1.304-1.516-2.254-2.869-2.417L3.836,14.806c-1.869-0.209-3.583,1.11-3.811,2.988c-0.227,1.878,1.11,3.583,2.988,3.81
		l27.502,3.329l22.062,73.753C53.02,100.166,54.377,101.13,55.855,101.129z"/>
	<path d="M61.839,101.946c-8.163,0-14.802,6.641-14.802,14.804c0,8.163,6.639,14.802,14.802,14.802
		c8.163,0,14.803-6.639,14.803-14.802C76.642,108.587,70.002,101.946,61.839,101.946z M61.839,124.703
		c-4.386,0-7.954-3.568-7.954-7.953c0-4.387,3.568-7.955,7.954-7.955c4.387,0,7.955,3.568,7.955,7.955
		C69.794,121.135,66.226,124.703,61.839,124.703z"/>
	<path d="M131.533,94.28c-8.162,0-14.802,6.641-14.802,14.803c0,8.163,6.64,14.802,14.802,14.802
		c8.163,0,14.803-6.639,14.803-14.802C146.336,100.921,139.695,94.28,131.533,94.28z M131.533,117.038
		c-4.386,0-7.953-3.568-7.953-7.954c0-4.387,3.568-7.955,7.953-7.955c4.387,0,7.955,3.568,7.955,7.955
		C139.488,113.47,135.92,117.038,131.533,117.038z"/>
	<path d="M92.122,35.579c-1.891,0-3.424,1.533-3.424,3.424l-0.08,10.677l-42.005,2.605c-1.886,0.117-3.322,1.742-3.205,3.63
		c0.112,1.814,1.62,3.212,3.414,3.212c0.072,0,0.144-0.002,0.216-0.007l41.58-2.579v11.732l-36.446,5.698
		c-1.867,0.297-3.14,2.053-2.841,3.92c0.268,1.684,1.724,2.884,3.376,2.884c0.181,0,0.363-0.013,0.545-0.043l35.367-5.525v10.447
		c0,1.891,1.533,3.424,3.424,3.424c1.891,0,3.424-1.533,3.424-3.424v-11.54l37.889-6.144c1.868-0.298,3.14-2.053,2.841-3.92
		c-0.298-1.868-2.082-3.155-3.921-2.841L95.465,67.18V56.118l39.718-2.327c1.888-0.117,3.323-1.742,3.205-3.63
		c-0.115-1.888-1.754-3.334-3.63-3.205l-39.294,2.3l0.08-10.253C95.546,37.112,94.012,35.579,92.122,35.579z"/>
</g>
<g>
</g>
<g>
</g>
<g>
</g>
<g>
</g>
<g>
</g>
<g>
</g>
<g>
</g>
<g>
</g>
<g>
</g>
<g>
</g>
<g>
</g>
<g>
</g>
<g>
</g>
<g>
</g>
<g>
</g>
</svg>
